#!OML:ASF X:\für Bonn\!DataBase\2005_08_12_Daniel\c3d\Daniel.ASF
:FULLY-SPECIFIED
:DEGREES
16
root -4.07591 16.4905 -2.73687 318.135 -80.2725 -327.782
lowerback 23.1415 -2.60719 -4.29859
upperback 1.73712 -5.15794 -3.58602
thorax -10.9942 -2.38878 0.120584
lowerneck 1.2707 1.16005 -4.36498
upperneck 4.06952 1.41516 2.75682
head 0.996639 0.658062 1.60392
rclavicle 5.11871e-015 7.95139e-015
rhumerus 57.2126 -11.0373 -112.001
rradius 6.53757
rwrist 84.1353
rhand -18.5263 13.5225
rfingers 7.12502
rthumb 7.76242 -16.315
lclavicle 5.11871e-015 7.95139e-015
lhumerus 58.5374 2.38744 92.9872
lradius 7.98321
lwrist -62.17
lhand -19.077 1.54264
lfingers 7.12502
lthumb 7.23085 31.3991
rfemur -9.20691 -8.62404 8.7157
rtibia 48.4585
rfoot -28.4018 0.92456
rtoes -16.5775
lfemur -13.7814 -4.71279 -21.2892
ltibia 48.7403
lfoot -25.1021 -7.27625
ltoes 0.700913
17
root -4.05694 16.3821 -2.73054 317.981 -80.3245 -327.999
lowerback 23.8675 -2.58622 -4.18381
upperback 1.83327 -5.15174 -3.58306
thorax -11.2908 -2.38497 0.0924132
lowerneck 1.31401 1.16124 -4.30298
upperneck 3.94914 1.41817 2.73886
head 0.951657 0.661373 1.58566
rclavicle -3.75206e-014 -6.67916e-014
rhumerus 57.7168 -11.4822 -112.834
rradius 6.50763
rwrist 84.8179
rhand -18.5971 13.5955
rfingers 7.12502
rthumb 7.69408 -16.2445
lclavicle -3.75206e-014 -6.67916e-014
lhumerus 58.7755 2.29508 93.1361
lradius 7.89893
lwrist -62.3789
lhand -19.275 1.56022
lfingers 7.12502
lthumb 7.03969 31.4232
rfemur -10.1396 -9.77341 8.23979
rtibia 50.7033
rfoot -28.3805 2.40467
rtoes -16.3224
lfemur -14.5966 -4.04911 -21.0821
ltibia 50.7005
lfoot -25.5094 -8.16275
ltoes 0.916177
18
root -4.03768 16.2707 -2.72464 317.812 -80.3847 -328.191
lowerback 24.5793 -2.56343 -4.08274
upperback 1.92103 -5.14231 -3.56429
thorax -11.5846 -2.37847 0.0873257
lowerneck 1.3847 1.16954 -4.25001
upperneck 3.81833 1.4294 2.72538
head 0.898478 0.668515 1.57012
rclavicle -1.12313e-014 1.35174e-014
rhumerus 58.1971 -11.8828 -113.669
rradius 6.49602
rwrist 85.5369
rhand -18.7463 13.6659
rfingers 7.12502
rthumb 7.54999 -16.1794
lclavicle -1.12313e-014 1.35174e-014
lhumerus 59.0018 2.19861 93.3175
lradius 7.86181
lwrist -62.6844
lhand -19.4961 1.61562
lfingers 7.12502
lthumb 6.8263 31.4856
rfemur -11.1057 -10.8288 7.77694
rtibia 52.9848
rfoot -28.3264 3.80718
rtoes -15.9055
lfemur -15.4247 -3.4128 -20.8614
ltibia 52.6765
lfoot -25.8973 -9.05386
ltoes 1.1926
19
root -4.01956 16.1543 -2.71915 317.639 -80.4394 -328.38
lowerback 25.2523 -2.54041 -3.97805
upperback 2.03656 -5.12776 -3.55177
thorax -11.8245 -2.37258 0.0685104
lowerneck 1.42179 1.1681 -4.15876
upperneck 3.67203 1.43095 2.67491
head 0.846973 0.671463 1.53622
rclavicle 1.18277e-014 1.27222e-014
rhumerus 58.7333 -12.2901 -114.504
rradius 6.45409
rwrist 86.2519
rhand -18.9054 13.7615
rfingers 7.12502
rthumb 7.39647 -16.0892
lclavicle 1.18277e-014 1.27222e-014
lhumerus 59.2692 2.09558 93.4909
lradius 7.8505
lwrist -63.1066
lhand -19.6323 1.63128
lfingers 7.12502
lthumb 6.69481 31.5054
rfemur -12.0833 -11.8354 7.30268
rtibia 55.295
rfoot -28.2046 5.18839
rtoes -15.4107
lfemur -16.2793 -2.7791 -20.6415
ltibia 54.6916
lfoot -26.3055 -9.90757
ltoes 1.34661
20
root -4.00152 16.0331 -2.71376 317.431 -80.4858 -328.545
lowerback 25.9318 -2.52165 -3.88588
upperback 2.14593 -5.12268 -3.54431
thorax -12.0723 -2.37051 0.0542435
lowerneck 1.49318 1.17247 -4.06296
upperneck 3.53362 1.43818 2.63419
head 0.792018 0.676892 1.50449
rclavicle -2.31584e-014 3.97569e-015
rhumerus 59.2026 -12.6904 -115.356
rradius 6.4806
rwrist 86.998
rhand -19.0709 13.8462
rfingers 7.12502
rthumb 7.2367 -16.01
lclavicle -2.31584e-014 3.97569e-015
lhumerus 59.5304 2.01239 93.6454
lradius 7.82653
lwrist -63.6464
lhand -19.6987 1.74729
lfingers 7.12502
lthumb 6.63068 31.6235
rfemur -13.071 -12.7788 6.8153
rtibia 57.6451
rfoot -28.0651 6.52617
rtoes -14.8818
lfemur -17.133 -2.19749 -20.4262
ltibia 56.7388
lfoot -26.7086 -10.7473
ltoes 1.57203
21
root -3.98426 15.906 -2.70817 317.21 -80.5565 -328.697
lowerback 26.592 -2.50227 -3.76755
upperback 2.26805 -5.10696 -3.53944
thorax -12.2954 -2.36633 0.0167679
lowerneck 1.53159 1.17918 -4.01188
upperneck 3.39113 1.44895 2.63469
head 0.740979 0.684158 1.49417
rclavicle -6.29153e-014 -1.59028e-014
rhumerus 59.6612 -13.0912 -116.214
rradius 6.54524
rwrist 87.8354
rhand -19.2327 13.9537
rfingers 7.12502
rthumb 7.08056 -15.9079
lclavicle -6.29153e-014 -1.59028e-014
lhumerus 59.8028 1.92357 93.7956
lradius 7.84911
lwrist -64.1635
lhand -19.6001 1.80514
lfingers 7.12502
lthumb 6.72588 31.6783
rfemur -14.077 -13.6548 6.33773
rtibia 60.0207
rfoot -27.8701 7.86647
rtoes -14.17
lfemur -18.0263 -1.60731 -20.189
ltibia 58.8431
lfoot -27.1015 -11.5694
ltoes 1.73726
22
root -3.96646 15.7717 -2.70284 316.998 -80.6027 -328.888
lowerback 27.2843 -2.48412 -3.67249
upperback 2.39979 -5.09912 -3.52442
thorax -12.5189 -2.36461 0.00761936
lowerneck 1.58556 1.1735 -3.93683
upperneck 3.22721 1.44428 2.58801
head 0.681646 0.683673 1.46431
rclavicle 4.3832e-014 7.15625e-015
rhumerus 60.0883 -13.4882 -117.053
rradius 6.6376
rwrist 88.6122
rhand -19.37 14.1063
rfingers 7.12502
rthumb 6.94796 -15.7597
lclavicle 4.3832e-014 7.15625e-015
lhumerus 60.081 1.84086 93.9648
lradius 7.88016
lwrist -64.7407
lhand -19.4114 1.88169
lfingers 7.12502
lthumb 6.90801 31.749
rfemur -15.062 -14.4882 5.84065
rtibia 62.4281
rfoot -27.6456 9.12891
rtoes -13.4098
lfemur -18.9192 -1.05027 -19.9569
ltibia 60.9896
lfoot -27.4875 -12.3728
ltoes 1.83964
23
root -3.94911 15.6321 -2.69834 316.768 -80.6574 -329.041
lowerback 27.9631 -2.46132 -3.57263
upperback 2.51939 -5.08288 -3.51439
thorax -12.748 -2.35935 -0.0140185
lowerneck 1.66171 1.17391 -3.87023
upperneck 3.05882 1.44611 2.57117
head 0.616905 0.686314 1.44535
rclavicle 3.3694e-014 -1.74931e-014
rhumerus 60.4584 -13.9095 -117.898
rradius 6.80869
rwrist 89.4531
rhand -19.4785 14.2619
rfingers 7.12502
rthumb 6.84329 -15.6075
lclavicle 3.3694e-014 -1.74931e-014
lhumerus 60.3371 1.75465 94.1218
lradius 7.91
lwrist -65.2267
lhand -19.1651 1.96416
lfingers 7.12502
lthumb 7.14582 31.8235
rfemur -16.0987 -15.2811 5.34982
rtibia 64.862
rfoot -27.3937 10.3075
rtoes -12.7264
lfemur -19.8582 -0.51318 -19.7178
ltibia 63.1751
lfoot -27.8696 -13.1775
ltoes 1.98265
